<svg viewBox="0 0 24 24" xmlns="http://www.w3.org/2000/svg">
  <circle cx="12" cy="12" r="12" fill="#1DB954"/>
  <path d="M17.5 10.8c-4.6-2.7-12.2-3-16.6-1.7-.4.1-.8-.1-.9-.5-.1-.4.1-.8.5-.9 5-1.4 13.3-1.1 18.4 1.9.4.2.5.7.3 1-.2.4-.7.5-1.1.3-.4-.1-.4-.1-.6-.1zm-1.4 3.2c-.2.3-.6.4-.9.2-3.8-2.3-9.6-3-14.2-1.6-.4.1-.7-.1-.8-.4-.1-.3.1-.7.4-.8 5.2-1.5 11.5-.8 15.8 1.9.3.2.4.6.2.9-.3.2-.3.2-.5-.2zm-1.2 3.1c-.2.2-.5.3-.7.1-3.4-2-7.6-2.5-12.6-1.4-.3.1-.5-.1-.6-.3-.1-.3.1-.5.3-.6 5.4-1.2 10.1-.7 13.9 1.6.2.1.3.4.1.6h-.4z" fill="black"/>
</svg>
